HIERARCHY
ROOT Hips
{
    OFFSET 0.000000 0.000000 0.000000
    CHANNELS 6 Xposition Yposition Zposition Zrotation Xrotation Yrotation
    JOINT Spine
    {
        OFFSET -0.000000 7.236184 0.000000
        CHANNELS 3 Zrotation Xrotation Yrotation
        JOINT Spine1
        {
            OFFSET -0.000000 20.420147 0.000000
            CHANNELS 3 Zrotation Xrotation Yrotation
            JOINT Neck
            {
                OFFSET -0.000000 20.336288 1.848754
                CHANNELS 3 Zrotation Xrotation Yrotation
                JOINT Head
                {
                    OFFSET -0.000000 12.354461 -1.764923
                    CHANNELS 3 Zrotation Xrotation Yrotation
                    End Site
                    {
                        OFFSET -0.000000 22.061537 0.000000
                    }
                }
            }
            JOINT LeftShoulder
            {
                OFFSET 3.573296 18.396038 -0.314103
                CHANNELS 3 Zrotation Xrotation Yrotation
                JOINT LeftArm
                {
                    OFFSET 10.880760 0.000000 0.000000
                    CHANNELS 3 Zrotation Xrotation Yrotation
                    JOINT LeftForeArm
                    {
                        OFFSET 27.185530 0.000000 0.000000
                        CHANNELS 3 Zrotation Xrotation Yrotation
                        JOINT LeftHand
                        {
                            OFFSET 27.825975 0.000000 0.000000
                            CHANNELS 3 Zrotation Xrotation Yrotation
                            End Site
                            {
                                OFFSET 13.236923 0.000000 0.000000
                            }
                        }
                    }
                }
            }
            JOINT RightShoulder
            {
                OFFSET -3.474926 18.396038 -0.314103
                CHANNELS 3 Zrotation Xrotation Yrotation
                JOINT RightArm
                {
                    OFFSET -10.880760 0.000000 0.000000
                    CHANNELS 3 Zrotation Xrotation Yrotation
                    JOINT RightForeArm
                    {
                        OFFSET -27.185530 0.000000 0.000000
                        CHANNELS 3 Zrotation Xrotation Yrotation
                        JOINT RightHand
                        {
                            OFFSET -27.825975 0.000000 0.000000
                            CHANNELS 3 Zrotation Xrotation Yrotation
                            End Site
                            {
                                OFFSET -13.236923 0.000000 0.000000
                            }
                        }
                    }
                }
            }
        }
    }
    JOINT LeftUpLeg
    {
        OFFSET 8.824615 0.000000 0.000000
        CHANNELS 3 Zrotation Xrotation Yrotation
        JOINT LeftLeg
        {
            OFFSET -0.000000 -35.111282 0.000000
            CHANNELS 3 Zrotation Xrotation Yrotation
            JOINT LeftFoot
            {
                OFFSET -0.000000 -42.324711 0.000000
                CHANNELS 3 Zrotation Xrotation Yrotation
                JOINT LeftToeBase
                {
                    OFFSET -0.000000 -5.735999 13.236923
                    CHANNELS 3 Zrotation Xrotation Yrotation
                    End Site
                    {
                        OFFSET -0.000000 0.000000 3.529846
                    }
                }
            }
        }
    }
    JOINT RightUpLeg
    {
        OFFSET -8.824615 0.000000 0.000000
        CHANNELS 3 Zrotation Xrotation Yrotation
        JOINT RightLeg
        {
            OFFSET -0.000000 -35.111282 0.000000
            CHANNELS 3 Zrotation Xrotation Yrotation
            JOINT RightFoot
            {
                OFFSET -0.000000 -42.324711 0.000000
                CHANNELS 3 Zrotation Xrotation Yrotation
                JOINT RightToeBase
                {
                    OFFSET -0.000000 -5.735999 13.236923
                    CHANNELS 3 Zrotation Xrotation Yrotation
                    End Site
                    {
                        OFFSET -0.000000 0.000000 3.529846
                    }
                }
            }
        }
    }
}
MOTION
Frames:    5
Frame Time:    0.008333
4.023665    80.203407    110.752319    4.120536    -14.477662    -168.776749    -1.527232    -10.121567    0.781092    3.153250    3.680179    0.815024    1.528842    4.452354    -4.449000    10.140374    -12.559599    -2.267490    -0.463661    15.813581    0.671767    -54.156605    29.465570    -31.949642    3.006745    -6.726898    -10.915480    18.817301    -6.506801    -0.396989    5.858354    17.859819    -7.173044    45.356571    43.234516    30.493460    -2.648216    -8.604328    19.666870    -13.630389    -7.828678    -2.715575    10.922746    -35.337925    -3.718784    1.674494    34.593903    4.059283    -11.598498    -11.503316    -16.945698    -0.766159    -0.646259    0.850252    -16.381178    -14.244490    -10.329223    3.351868    13.879235    -3.279152    14.168667    -7.748415    -11.472549    -0.707442    0.671057    0.764453    
3.680298    80.058228    110.763359    4.335355    -14.452979    -168.590240    -1.501024    -10.040340    0.853141    3.268853    3.683341    0.879869    1.537829    4.300602    -4.654858    10.670414    -12.764608    -2.333920    -0.453546    15.817337    0.620363    -54.066811    29.312969    -32.018131    2.950897    -6.636652    -10.787410    18.750120    -6.427564    -0.413242    5.897847    17.858936    -7.203944    45.411758    42.968788    30.212915    -2.671238    -8.567973    19.751894    -13.559265    -7.788707    -2.709336    10.580820    -35.825794    -3.953618    2.031786    35.453987    3.712655    -11.486745    -11.897334    -16.846476    -0.743742    -0.661701    0.825398    -16.520649    -14.437776    -10.517298    3.346485    14.397039    -3.370004    14.443671    -7.802457    -11.380476    -0.727901    0.553268    0.786686    
3.338416    79.915100    110.773720    4.547043    -14.428014    -168.406235    -1.476279    -9.960402    0.924158    3.384280    3.685122    0.943893    1.549455    4.150339    -4.857613    11.190787    -12.968743    -2.398077    -0.442671    15.821380    0.568303    -53.978317    29.162237    -32.084782    2.895678    -6.548004    -10.660642    18.684410    -6.349541    -0.428506    5.938485    17.857779    -7.236176    45.465450    42.704758    29.932064    -2.694279    -8.532816    19.839905    -13.487676    -7.750183    -2.700114    10.232001    -36.301182    -4.194243    2.392086    36.294880    3.366401    -11.373544    -12.283442    -16.747286    -0.721766    -0.676825    0.801031    -16.661749    -14.623457    -10.707804    3.339373    14.902750    -3.454302    14.718917    -7.849079    -11.287141    -0.747526    0.434747    0.808026    
2.995301    79.774139    110.782883    4.755983    -14.402373    -168.224518    -1.454247    -9.882210    0.993795    3.501497    3.685635    1.006831    1.566018    4.001171    -5.057485    11.699687    -13.172696    -2.460908    -0.429416    15.825806    0.515167    -53.892262    29.014332    -32.148899    2.840598    -6.461090    -10.534730    18.620764    -6.272891    -0.442671    5.982446    17.855932    -7.272138    45.517193    42.439659    29.648447    -2.717383    -8.498610    19.933746    -13.414167    -7.712936    -2.686647    9.875274    -36.761791    -4.438139    2.756637    37.113663    3.014218    -11.257911    -12.662337    -16.645018    -0.700141    -0.690719    0.777051    -16.805185    -14.797297    -10.902815    3.329087    15.390594    -3.532408    14.997712    -7.882678    -11.188917    -0.765853    0.314039    0.827972    
2.654011    79.638062    110.790611    4.958206    -14.378633    -168.047989    -1.437642    -9.808809    1.060484    3.619992    3.683696    1.067462    1.589429    3.855156    -5.251407    12.187157    -13.373262    -2.522388    -0.412367    15.830467    0.461234    -53.811764    28.872559    -32.207588    2.786153    -6.377389    -10.411598    18.560453    -6.199013    -0.455612    6.031241    17.852652    -7.313205    45.566734    42.174992    29.363539    -2.740014    -8.465292    20.033739    -13.338740    -7.677059    -2.668374    9.513969    -37.200081    -4.678609    3.121374    37.893532    2.662188    -11.141839    -13.026705    -16.544577    -0.678679    -0.702528    0.753248    -16.951317    -14.954987    -11.101121    3.315192    15.847573    -3.603498    15.278457    -7.897502    -11.084547    -0.781998    0.190607    0.845569    
